  0
SECTION
  2
HEADER
  9
$ACADVER
  1
AC1009
  9
$INSBASE
 10
0.0
 20
0.0
 30
0.0
  9
$EXTMIN
 10
-0.0026109508848151
 20
-5.0111605375298041
 30
-0.0015258207003583
  9
$EXTMAX
 10
85.5647777194215
 20
153.32467931205949
 30
0.0000000349246037
  9
$LIMMIN
 10
0.0
 20
0.0
  9
$LIMMAX
 10
12.0
 20
9.0
  9
$ORTHOMODE
 70
     0
  9
$REGENMODE
 70
     1
  9
$FILLMODE
 70
     1
  9
$QTEXTMODE
 70
     0
  9
$MIRRTEXT
 70
     0
  9
$DRAGMODE
 70
     2
  9
$LTSCALE
 40
1.0
  9
$OSMODE
 70
   183
  9
$ATTMODE
 70
     1
  9
$TEXTSIZE
 40
2.5
  9
$TRACEWID
 40
0.05
  9
$TEXTSTYLE
  7
STANDARD
  9
$CLAYER
  8
0
  9
$CELTYPE
  6
CONTINUOUS
  9
$CECOLOR
 62
   256
  9
$DIMSCALE
 40
1.0
  9
$DIMASZ
 40
2.5
  9
$DIMEXO
 40
0.625
  9
$DIMDLI
 40
0.38
  9
$DIMRND
 40
0.0
  9
$DIMDLE
 40
0.0
  9
$DIMEXE
 40
1.25
  9
$DIMTP
 40
0.0
  9
$DIMTM
 40
0.0
  9
$DIMTXT
 40
2.5
  9
$DIMCEN
 40
0.09
  9
$DIMTSZ
 40
0.0
  9
$DIMTOL
 70
     0
  9
$DIMLIM
 70
     0
  9
$DIMTIH
 70
     1
  9
$DIMTOH
 70
     1
  9
$DIMSE1
 70
     0
  9
$DIMSE2
 70
     0
  9
$DIMTAD
 70
     0
  9
$DIMZIN
 70
     0
  9
$DIMBLK
  1

  9
$DIMASO
 70
     1
  9
$DIMSHO
 70
     1
  9
$DIMPOST
  1

  9
$DIMAPOST
  1

  9
$DIMALT
 70
     0
  9
$DIMALTD
 70
     2
  9
$DIMALTF
 40
25.399999999999999
  9
$DIMLFAC
 40
1.0
  9
$DIMTOFL
 70
     0
  9
$DIMTVP
 40
0.0
  9
$DIMTIX
 70
     0
  9
$DIMSOXD
 70
     0
  9
$DIMSAH
 70
     0
  9
$DIMBLK1
  1

  9
$DIMBLK2
  1

  9
$DIMSTYLE
  2
STANDARD
  9
$DIMCLRD
 70
     0
  9
$DIMCLRE
 70
     0
  9
$DIMCLRT
 70
     0
  9
$DIMTFAC
 40
1.0
  9
$DIMGAP
 40
0.625
  9
$LUNITS
 70
     2
  9
$LUPREC
 70
     4
  9
$SKETCHINC
 40
0.1
  9
$FILLETRAD
 40
0.0
  9
$AUNITS
 70
     0
  9
$AUPREC
 70
     0
  9
$MENU
  1
.
  9
$ELEVATION
 40
0.0
  9
$PELEVATION
 40
0.0
  9
$THICKNESS
 40
0.0
  9
$LIMCHECK
 70
     0
  9
$BLIPMODE
 70
     0
  9
$CHAMFERA
 40
0.0
  9
$CHAMFERB
 40
0.0
  9
$SKPOLY
 70
     0
  9
$TDCREATE
 40
2456123.8227143059
  9
$TDUPDATE
 40
2456123.8314214698
  9
$TDINDWG
 40
0.0087111111
  9
$TDUSRTIMER
 40
0.0087111111
  9
$USRTIMER
 70
     1
  9
$ANGBASE
 50
0.0
  9
$ANGDIR
 70
     0
  9
$PDMODE
 70
     0
  9
$PDSIZE
 40
0.0
  9
$PLINEWID
 40
0.0
  9
$COORDS
 70
     1
  9
$SPLFRAME
 70
     0
  9
$SPLINETYPE
 70
     6
  9
$SPLINESEGS
 70
     8
  9
$ATTDIA
 70
     0
  9
$ATTREQ
 70
     1
  9
$HANDLING
 70
     1
  9
$HANDSEED
  5
100BD
  9
$SURFTAB1
 70
     6
  9
$SURFTAB2
 70
     6
  9
$SURFTYPE
 70
     6
  9
$SURFU
 70
     6
  9
$SURFV
 70
     6
  9
$UCSNAME
  2

  9
$UCSORG
 10
0.0
 20
0.0
 30
0.0
  9
$UCSXDIR
 10
1.0
 20
0.0
 30
0.0
  9
$UCSYDIR
 10
0.0
 20
1.0
 30
0.0
  9
$PUCSNAME
  2

  9
$PUCSORG
 10
0.0
 20
0.0
 30
0.0
  9
$PUCSXDIR
 10
1.0
 20
0.0
 30
0.0
  9
$PUCSYDIR
 10
0.0
 20
1.0
 30
0.0
  9
$USERI1
 70
     0
  9
$USERI2
 70
     0
  9
$USERI3
 70
     0
  9
$USERI4
 70
     0
  9
$USERI5
 70
     0
  9
$USERR1
 40
0.0
  9
$USERR2
 40
0.0
  9
$USERR3
 40
0.0
  9
$USERR4
 40
0.0
  9
$USERR5
 40
0.0
  9
$WORLDVIEW
 70
     1
  9
$SHADEDGE
 70
     3
  9
$SHADEDIF
 70
    70
  9
$TILEMODE
 70
     1
  9
$MAXACTVP
 70
    64
  9
$PLIMCHECK
 70
     0
  9
$PEXTMIN
 10
1.0000000000000000E+020
 20
1.0000000000000000E+020
 30
1.0000000000000000E+020
  9
$PEXTMAX
 10
-1.0000000000000000E+020
 20
-1.0000000000000000E+020
 30
-1.0000000000000000E+020
  9
$PLIMMIN
 10
0.0
 20
0.0
  9
$PLIMMAX
 10
210.0
 20
297.0
  9
$UNITMODE
 70
     0
  9
$VISRETAIN
 70
     1
  9
$PLINEGEN
 70
     0
  9
$PSLTSCALE
 70
     1
  0
ENDSEC
  0
SECTION
  2
TABLES
  0
TABLE
  2
VPORT
 70
     1
  0
VPORT
  2
*ACTIVE
 70
     0
 10
0.0
 20
0.0
 11
1.0
 21
1.0
 12
20.45251349143243
 22
45.489112492955783
 13
0.0
 23
0.0
 14
10.0
 24
10.0
 15
10.0
 25
10.0
 16
0.0
 26
0.0
 36
490.61582205992522
 17
54.717829791475367
 27
31.019495575334719
 37
0.0
 40
159.7709078343895
 41
2.4689863842662629
 42
50.0
 43
0.0
 44
0.0
 50
0.0
 51
0.0
 71
     0
 72
   100
 73
     1
 74
     3
 75
     0
 76
     1
 77
     0
 78
     0
  0
ENDTAB
  0
TABLE
  2
LTYPE
 70
    20
  0
LTYPE
  2
CONTINUOUS
 70
     0
  3
Solid line
 72
    65
 73
     0
 40
0.0
  0
LTYPE
  2
DOT
 70
     0
  3
Dot . . . . . . . . . . . . . . . . . . . . . .
 72
    65
 73
     2
 40
6.3499999999999988
 49
0.0
 49
-6.3499999999999988
  0
LTYPE
  2
DOT2
 70
     0
  3
Dot (.5x) .....................................
 72
    65
 73
     2
 40
3.1749999999999989
 49
0.0
 49
-3.1749999999999989
  0
LTYPE
  2
DOTX2
 70
     0
  3
Dot (2x) .  .  .  .  .  .  .  .  .  .  .  .  .
 72
    65
 73
     2
 40
12.699999999999999
 49
0.0
 49
-12.699999999999999
  0
LTYPE
  2
DASHED
 70
     0
  3
Dashed __ __ __ __ __ __ __ __ __ __ __ __ __ _
 72
    65
 73
     2
 40
19.050000000000001
 49
12.699999999999999
 49
-6.3499999999999988
  0
LTYPE
  2
DASHED2
 70
     0
  3
Dashed (.5x) _ _ _ _ _ _ _ _ _ _ _ _ _ _ _ _ _
 72
    65
 73
     2
 40
9.5250000000000004
 49
6.3499999999999988
 49
-3.1749999999999989
  0
LTYPE
  2
DASHEDX2
 70
     0
  3
Dashed (2x) ____  ____  ____  ____  ____  ___
 72
    65
 73
     2
 40
38.100000000000001
 49
25.399999999999999
 49
-12.699999999999999
  0
LTYPE
  2
DASHDOT
 70
     0
  3
Dash dot __ . __ . __ . __ . __ . __ . __ . __
 72
    65
 73
     4
 40
25.399999999999999
 49
12.699999999999999
 49
-6.3499999999999988
 49
0.0
 49
-6.3499999999999988
  0
LTYPE
  2
DASHDOT2
 70
     0
  3
Dash dot (.5x) _._._._._._._._._._._._._._._.
 72
    65
 73
     4
 40
12.699999999999999
 49
6.3499999999999988
 49
-3.1749999999999989
 49
0.0
 49
-3.1749999999999989
  0
LTYPE
  2
DASHDOTX2
 70
     0
  3
Dash dot (2x) ____  .  ____  .  ____  .  ___
 72
    65
 73
     4
 40
50.799999999999997
 49
25.399999999999999
 49
-12.699999999999999
 49
0.0
 49
-12.699999999999999
  0
LTYPE
  2
DIVIDE
 70
     0
  3
Divide ____ . . ____ . . ____ . . ____ . . ____
 72
    65
 73
     6
 40
31.75
 49
12.699999999999999
 49
-6.3499999999999988
 49
0.0
 49
-6.3499999999999988
 49
0.0
 49
-6.3499999999999988
  0
LTYPE
  2
DIVIDE2
 70
     0
  3
Divide (.5x) __..__..__..__..__..__..__..__.._
 72
    65
 73
     6
 40
15.875
 49
6.3499999999999988
 49
-3.1749999999999989
 49
0.0
 49
-3.1749999999999989
 49
0.0
 49
-3.1749999999999989
  0
LTYPE
  2
DIVIDEX2
 70
     0
  3
Divide (2x) ________  .  .  ________  .  .  _
 72
    65
 73
     6
 40
63.5
 49
25.399999999999999
 49
-12.699999999999999
 49
0.0
 49
-12.699999999999999
 49
0.0
 49
-12.699999999999999
  0
LTYPE
  2
CENTER
 70
     0
  3
Center ____ _ ____ _ ____ _ ____ _ ____ _ ____
 72
    65
 73
     4
 40
50.799999999999997
 49
31.75
 49
-6.3499999999999988
 49
6.3499999999999988
 49
-6.3499999999999988
  0
LTYPE
  2
CENTER2
 70
     0
  3
Center (.5x) ___ _ ___ _ ___ _ ___ _ ___ _ ___
 72
    65
 73
     4
 40
28.574999999999999
 49
19.050000000000001
 49
-3.1749999999999989
 49
3.1749999999999989
 49
-3.1749999999999989
  0
LTYPE
  2
CENTERX2
 70
     0
  3
Center (2x) ________  __  ________  __  _____
 72
    65
 73
     4
 40
101.59999999999999
 49
63.5
 49
-12.699999999999999
 49
12.699999999999999
 49
-12.699999999999999
  0
LTYPE
  2
BORDER
 70
     0
  3
Border __ __ . __ __ . __ __ . __ __ . __ __ .
 72
    65
 73
     6
 40
44.450000000000003
 49
12.699999999999999
 49
-6.3499999999999988
 49
12.699999999999999
 49
-6.3499999999999988
 49
0.0
 49
-6.3499999999999988
  0
LTYPE
  2
BORDER2
 70
     0
  3
Border (.5x) __.__.__.__.__.__.__.__.__.__.__.
 72
    65
 73
     6
 40
22.225000000000001
 49
6.3499999999999988
 49
-3.1749999999999989
 49
6.3499999999999988
 49
-3.1749999999999989
 49
0.0
 49
-3.1749999999999989
  0
LTYPE
  2
BORDERX2
 70
     0
  3
Border (2x) ____  ____  .  ____  ____  .  ___
 72
    65
 73
     6
 40
88.900000000000006
 49
25.399999999999999
 49
-12.699999999999999
 49
25.399999999999999
 49
-12.699999999999999
 49
0.0
 49
-12.699999999999999
  0
ENDTAB
  0
TABLE
  2
LAYER
 70
     1
  0
LAYER
  2
0
 70
     0
 62
     7
  6
CONTINUOUS
  0
ENDTAB
  0
TABLE
  2
STYLE
 70
     1
  0
STYLE
  2
STANDARD
 70
     0
 40
0.0
 41
0.75
 50
0.0
 71
     0
 42
2.5
  3
txt
  4

  0
ENDTAB
  0
TABLE
  2
VIEW
 70
     0
  0
ENDTAB
  0
TABLE
  2
UCS
 70
     0
  0
ENDTAB
  0
TABLE
  2
APPID
 70
     4
  0
APPID
  2
ACAD
 70
     0
  0
APPID
  2
ACAD_EXEMPT_FROM_CAD_STANDARDS
 70
     0
  0
APPID
  2
ACAD_NAV_VCDISPLAY
 70
     0
  0
APPID
  2
ACAD_MLEADERVER
 70
     0
  0
ENDTAB
  0
TABLE
  2
DIMSTYLE
 70
     2
  0
DIMSTYLE
  2
STANDARD
 70
     0
  3

  4

  5

  6

  7

 40
1.0
 41
2.5
 42
0.625
 43
3.75
 44
1.25
 45
0.0
 46
0.0
 47
0.0
 48
0.0
140
2.5
141
2.5
142
0.0
143
0.03937007874016
144
1.0
145
0.0
146
1.0
147
0.625
 71
     0
 72
     0
 73
     0
 74
     0
 75
     0
 76
     0
 77
     1
 78
     8
170
     0
171
     3
172
     1
173
     0
174
     0
175
     0
176
     0
177
     0
178
     0
  0
ENDTAB
  0
ENDSEC
  0
SECTION
  2
BLOCKS
  0
BLOCK
  8
0
  2
$MODEL_SPACE
 70
     0
 10
0.0
 20
0.0
 30
0.0
  3
$MODEL_SPACE
  1

  0
ENDBLK
  5
21
  8
0
  0
BLOCK
 67
     1
  8
0
  2
$PAPER_SPACE
 70
     0
 10
0.0
 20
0.0
 30
0.0
  3
$PAPER_SPACE
  1

  0
ENDBLK
  5
1D
 67
     1
  8
0
  0
ENDSEC
  0
SECTION
  2
ENTITIES
  0
CIRCLE
  5
43
  8
0
 10
51.393396797153628
 20
130.0318767793606
 30
0.0
 40
1.8
  0
CIRCLE
  5
44
  8
0
 10
51.393396797153628
 20
120.0318767793606
 30
0.0
 40
1.8
  0
LINE
  5
45
  8
0
 10
45.393396797153642
 20
130.0318767793606
 30
0.0
 11
45.393396797153642
 21
120.0318767793606
 31
0.0
  0
ARC
  5
46
  8
0
 10
51.393396797153628
 20
130.0318767793606
 30
0.0
 40
6.0
 50
0.0
 51
180.0
  0
ARC
  5
47
  8
0
 10
51.393396797153628
 20
120.0318767793606
 30
0.0
 40
6.0
 50
180.0
 51
0.0
  0
CIRCLE
  5
48
  8
0
 10
63.393396797153621
 20
130.0318767793606
 30
0.0
 40
1.8
  0
CIRCLE
  5
49
  8
0
 10
63.393396797153621
 20
120.0318767793606
 30
0.0
 40
1.8
  0
LINE
  5
4A
  8
0
 10
57.393396797153642
 20
130.0318767793606
 30
0.0
 11
57.393396797153642
 21
120.0318767793606
 31
0.0
  0
ARC
  5
4B
  8
0
 10
63.393396797153621
 20
130.0318767793606
 30
0.0
 40
6.0
 50
0.0
 51
180.0
  0
ARC
  5
4C
  8
0
 10
63.393396797153621
 20
120.0318767793606
 30
0.0
 40
6.0
 50
180.0
 51
0.0
  0
CIRCLE
  5
4D
  8
0
 10
75.393396797153628
 20
130.0318767793606
 30
0.0
 40
1.8
  0
CIRCLE
  5
4E
  8
0
 10
75.393396797153628
 20
120.0318767793606
 30
0.0
 40
1.8
  0
LINE
  5
4F
  8
0
 10
69.393396797153628
 20
130.0318767793606
 30
0.0
 11
69.393396797153628
 21
120.0318767793606
 31
0.0
  0
ARC
  5
50
  8
0
 10
75.393396797153628
 20
130.0318767793606
 30
0.0
 40
6.0
 50
0.0
 51
180.0
  0
ARC
  5
51
  8
0
 10
75.393396797153628
 20
120.0318767793606
 30
0.0
 40
6.0
 50
180.0
 51
0.0
  0
LINE
  5
52
  8
0
 10
81.393396797153613
 20
130.0318767793606
 30
0.0
 11
81.393396797153613
 21
120.0318767793606
 31
0.0
  0
CIRCLE
  5
53
  8
0
 10
51.393396797153628
 20
108.0318767793606
 30
0.0
 40
1.8
  0
CIRCLE
  5
54
  8
0
 10
51.393396797153628
 20
98.031876779360644
 30
0.0
 40
1.8
  0
LINE
  5
55
  8
0
 10
45.393396797153642
 20
108.0318767793606
 30
0.0
 11
45.393396797153642
 21
98.031876779360644
 31
0.0
  0
ARC
  5
56
  8
0
 10
51.393396797153628
 20
108.0318767793606
 30
0.0
 40
6.0
 50
0.0
 51
180.0
  0
ARC
  5
57
  8
0
 10
51.393396797153628
 20
98.031876779360644
 30
0.0
 40
6.0
 50
180.0
 51
0.0
  0
CIRCLE
  5
58
  8
0
 10
63.393396797153621
 20
108.0318767793606
 30
0.0
 40
1.8
  0
CIRCLE
  5
59
  8
0
 10
63.393396797153621
 20
98.031876779360644
 30
0.0
 40
1.8
  0
LINE
  5
5A
  8
0
 10
57.393396797153642
 20
108.0318767793606
 30
0.0
 11
57.393396797153642
 21
98.031876779360644
 31
0.0
  0
ARC
  5
5B
  8
0
 10
63.393396797153621
 20
108.0318767793606
 30
0.0
 40
6.0
 50
0.0
 51
180.0
  0
ARC
  5
5C
  8
0
 10
63.393396797153621
 20
98.031876779360644
 30
0.0
 40
6.0
 50
180.0
 51
0.0
  0
CIRCLE
  5
5D
  8
0
 10
75.393396797153628
 20
108.0318767793606
 30
0.0
 40
1.8
  0
CIRCLE
  5
5E
  8
0
 10
75.393396797153628
 20
98.031876779360644
 30
0.0
 40
1.8
  0
LINE
  5
5F
  8
0
 10
69.393396797153628
 20
108.0318767793606
 30
0.0
 11
69.393396797153628
 21
98.031876779360644
 31
0.0
  0
ARC
  5
60
  8
0
 10
75.393396797153628
 20
108.0318767793606
 30
0.0
 40
6.0
 50
0.0
 51
180.0
  0
ARC
  5
61
  8
0
 10
75.393396797153628
 20
98.031876779360644
 30
0.0
 40
6.0
 50
180.0
 51
0.0
  0
LINE
  5
62
  8
0
 10
81.393396797153613
 20
108.0318767793606
 30
0.0
 11
81.393396797153613
 21
98.031876779360644
 31
0.0
  0
LINE
  5
63
  8
0
 10
70.000000000000057
 20
65.570000000000022
 30
0.0
 11
58.000000000000057
 21
65.570000000000022
 31
0.0
  0
LINE
  5
64
  8
0
 10
70.000000000000057
 20
85.569999999999993
 30
0.0
 11
70.000000000000057
 21
65.570000000000022
 31
0.0
  0
LINE
  5
65
  8
0
 10
58.000000000000057
 20
85.569999999999993
 30
0.0
 11
58.000000000000057
 21
65.570000000000022
 31
0.0
  0
LINE
  5
66
  8
0
 10
70.000000000000057
 20
85.569999999999993
 30
0.0
 11
58.000000000000057
 21
85.569999999999993
 31
0.0
  0
LINE
  5
67
  8
0
 10
61.00000000000005
 20
12.999999999999989
 30
0.0
 11
76.000000000000028
 21
12.999999999999989
 31
0.0
  0
LINE
  5
68
  8
0
 10
61.00000000000005
 20
10.0
 30
0.0
 11
76.000000000000028
 21
9.9999999999999858
 31
0.0
  0
ARC
  5
69
  8
0
 10
76.000000000000028
 20
11.49999999999998
 30
0.0
 40
1.5
 50
270.0
 51
90.0
  0
ARC
  5
6A
  8
0
 10
61.00000000000005
 20
11.49999999999998
 30
0.0
 40
1.5
 50
90.0
 51
270.0
  0
ARC
  5
6B
  8
0
 10
49.000000000000057
 20
85.569999999999993
 30
0.0
 40
5.0
 50
90.0
 51
180.0
  0
LINE
  5
6C
  8
0
 10
44.000000000000057
 20
85.569999999999993
 30
0.0
 11
44.0
 21
5.0
 31
0.0
  0
ARC
  5
6D
  8
0
 10
49.0
 20
4.9999999999999982
 30
0.0
 40
5.0
 50
180.0
 51
269.99999999999989
  0
LINE
  5
6E
  8
0
 10
49.0
 20
-0.0000000000000009
 30
0.0
 11
78.999999999999972
 21
-0.0000000000000151
 31
0.0
  0
ARC
  5
6F
  8
0
 10
78.999999999999972
 20
4.999999999999984
 30
0.0
 40
5.0
 50
270.0
 51
360.0
  0
LINE
  5
70
  8
0
 10
84.000000000000071
 20
85.569999999999993
 30
0.0
 11
83.999999999999957
 21
4.9999999999999849
 31
0.0
  0
LINE
  5
71
  8
0
 10
79.000000000000071
 20
90.569999999999993
 30
0.0
 11
49.000000000000057
 21
90.569999999999993
 31
0.0
  0
ARC
  5
72
  8
0
 10
79.000000000000071
 20
85.569999999999993
 30
0.0
 40
5.0
 50
0.0
 51
90.0
  0
LINE
  5
73
  8
0
 10
60.800000000000033
 20
53.410000000000011
 30
0.0
 11
60.799999999999997
 21
27.41
 31
0.0
  0
LINE
  5
74
  8
0
 10
67.200000000000017
 20
27.409999999999989
 30
0.0
 11
67.200000000000045
 21
53.410000000000011
 31
0.0
  0
ARC
  5
75
  8
0
 10
64.000000000000057
 20
53.410000000000011
 30
0.0
 40
3.2000000000000002
 50
0.0
 51
180.0
  0
ARC
  5
76
  8
0
 10
64.000000000000014
 20
27.41
 30
0.0
 40
3.2000000000000002
 50
180.0
 51
0.0
  0
CIRCLE
  5
77
  8
0
 10
48.69339679715344
 20
149.2718767793603
 30
0.0
 40
1.8
  0
CIRCLE
  5
78
  8
0
 10
48.69339679715344
 20
139.2718767793603
 30
0.0
 40
1.8
  0
LINE
  5
79
  8
0
 10
45.693396797153433
 20
139.2718767793603
 30
0.0
 11
45.693396797153433
 21
149.2718767793603
 31
0.0
  0
ARC
  5
7A
  8
0
 10
48.69339679715344
 20
139.2718767793603
 30
0.0
 40
3.0
 50
180.0
 51
0.0
  0
ARC
  5
7B
  8
0
 10
48.69339679715344
 20
149.2718767793603
 30
0.0
 40
3.0
 50
0.0
 51
180.0
  0
CIRCLE
  5
7C
  8
0
 10
54.69339679715344
 20
149.2718767793603
 30
0.0
 40
1.8
  0
CIRCLE
  5
7D
  8
0
 10
54.69339679715344
 20
139.2718767793603
 30
0.0
 40
1.8
  0
LINE
  5
7E
  8
0
 10
51.69339679715344
 20
139.2718767793603
 30
0.0
 11
51.69339679715344
 21
149.2718767793603
 31
0.0
  0
ARC
  5
7F
  8
0
 10
54.69339679715344
 20
139.2718767793603
 30
0.0
 40
3.0
 50
180.0
 51
0.0
  0
ARC
  5
80
  8
0
 10
54.69339679715344
 20
149.2718767793603
 30
0.0
 40
3.0
 50
0.0
 51
180.0
  0
CIRCLE
  5
81
  8
0
 10
60.693396797153433
 20
149.2718767793603
 30
0.0
 40
1.8
  0
CIRCLE
  5
82
  8
0
 10
60.693396797153433
 20
139.2718767793603
 30
0.0
 40
1.8
  0
LINE
  5
83
  8
0
 10
57.69339679715344
 20
139.2718767793603
 30
0.0
 11
57.69339679715344
 21
149.2718767793603
 31
0.0
  0
ARC
  5
84
  8
0
 10
60.693396797153433
 20
139.2718767793603
 30
0.0
 40
3.0
 50
180.0
 51
0.0
  0
ARC
  5
85
  8
0
 10
60.693396797153433
 20
149.2718767793603
 30
0.0
 40
3.0
 50
0.0
 51
180.0
  0
CIRCLE
  5
86
  8
0
 10
66.693396797153426
 20
149.2718767793603
 30
0.0
 40
1.8
  0
CIRCLE
  5
87
  8
0
 10
66.693396797153426
 20
139.2718767793603
 30
0.0
 40
1.8
  0
LINE
  5
88
  8
0
 10
63.693396797153419
 20
139.2718767793603
 30
0.0
 11
63.693396797153419
 21
149.2718767793603
 31
0.0
  0
ARC
  5
89
  8
0
 10
66.693396797153426
 20
139.2718767793603
 30
0.0
 40
3.0
 50
180.0
 51
0.0
  0
ARC
  5
8A
  8
0
 10
66.693396797153426
 20
149.2718767793603
 30
0.0
 40
3.0
 50
0.0
 51
180.0
  0
CIRCLE
  5
8B
  8
0
 10
72.693396797153412
 20
149.2718767793603
 30
0.0
 40
1.8
  0
CIRCLE
  5
8C
  8
0
 10
72.693396797153412
 20
139.2718767793603
 30
0.0
 40
1.8
  0
LINE
  5
8D
  8
0
 10
69.693396797153426
 20
139.2718767793603
 30
0.0
 11
69.693396797153426
 21
149.2718767793603
 31
0.0
  0
ARC
  5
8E
  8
0
 10
72.693396797153412
 20
139.2718767793603
 30
0.0
 40
3.0
 50
180.0
 51
0.0
  0
ARC
  5
8F
  8
0
 10
72.693396797153412
 20
149.2718767793603
 30
0.0
 40
3.0
 50
0.0
 51
180.0
  0
CIRCLE
  5
90
  8
0
 10
78.693396797153412
 20
149.2718767793603
 30
0.0
 40
1.8
  0
CIRCLE
  5
91
  8
0
 10
78.693396797153412
 20
139.2718767793603
 30
0.0
 40
1.8
  0
LINE
  5
92
  8
0
 10
75.693396797153412
 20
139.2718767793603
 30
0.0
 11
75.693396797153412
 21
149.2718767793603
 31
0.0
  0
ARC
  5
93
  8
0
 10
78.693396797153412
 20
139.2718767793603
 30
0.0
 40
3.0
 50
180.0
 51
0.0
  0
ARC
  5
94
  8
0
 10
78.693396797153412
 20
149.2718767793603
 30
0.0
 40
3.0
 50
0.0
 51
180.0
  0
LINE
  5
95
  8
0
 10
81.693396797153397
 20
139.2718767793603
 30
0.0
 11
81.693396797153397
 21
149.2718767793603
 31
0.0
  0
CIRCLE
  5
96
  8
0
 10
22.000000000000011
 20
49.090000000000011
 30
0.0
 40
6.7000000000000002
  0
ARC
  5
97
  8
0
 10
5.0000000000000098
 20
148.31999999999999
 30
0.0
 40
5.0
 50
90.0
 51
180.0
  0
LINE
  5
98
  8
0
 10
5.0000000000000098
 20
153.31999999999999
 30
0.0
 11
39.000000000000021
 21
153.31999999999999
 31
0.0
  0
ARC
  5
99
  8
0
 10
39.000000000000021
 20
148.31999999999999
 30
0.0
 40
5.0
 50
0.0
 51
90.0
  0
CIRCLE
  5
9A
  8
0
 10
22.000000000000011
 20
73.000000000000028
 30
0.0
 40
1.8
  0
CIRCLE
  5
9B
  8
0
 10
22.000000000000011
 20
83.000000000000014
 30
0.0
 40
1.8
  0
CIRCLE
  5
9C
  8
0
 10
22.000000000000011
 20
143.31999999999999
 30
0.0
 40
1.8
  0
CIRCLE
  5
9D
  8
0
 10
16.920000000000002
 20
63.000000000000007
 30
0.0
 40
1.8
  0
CIRCLE
  5
9E
  8
0
 10
27.079999999999998
 20
63.000000000000007
 30
0.0
 40
1.8
  0
CIRCLE
  5
9F
  8
0
 10
27.079999999999998
 20
15.0
 30
0.0
 40
1.8
  0
CIRCLE
  5
A0
  8
0
 10
16.920000000000002
 20
15.000000000000011
 30
0.0
 40
1.8
  0
CIRCLE
  5
A1
  8
0
 10
12.67556316725965
 20
131.47987677936001
 30
0.0
 40
1.8
  0
CIRCLE
  5
A2
  8
0
 10
12.67556316725965
 20
131.47987677936001
 30
0.0
 40
3.0
  0
CIRCLE
  5
A3
  8
0
 10
18.67556316725965
 20
131.47987677936001
 30
0.0
 40
1.8
  0
CIRCLE
  5
A4
  8
0
 10
18.67556316725965
 20
131.47987677936001
 30
0.0
 40
3.0
  0
CIRCLE
  5
A5
  8
0
 10
24.67556316725965
 20
131.47987677936001
 30
0.0
 40
1.8
  0
CIRCLE
  5
A6
  8
0
 10
24.67556316725965
 20
131.47987677936001
 30
0.0
 40
3.0
  0
CIRCLE
  5
A7
  8
0
 10
30.675563167259661
 20
131.47987677936001
 30
0.0
 40
1.8
  0
CIRCLE
  5
A8
  8
0
 10
30.675563167259661
 20
131.47987677936001
 30
0.0
 40
3.0
  0
CIRCLE
  5
A9
  8
0
 10
12.832849567259659
 20
125.34570717936001
 30
0.0
 40
1.8
  0
CIRCLE
  5
AA
  8
0
 10
12.832849567259659
 20
125.34570717936001
 30
0.0
 40
3.0
  0
CIRCLE
  5
AB
  8
0
 10
18.832849567259661
 20
125.34570717936001
 30
0.0
 40
1.8
  0
CIRCLE
  5
AC
  8
0
 10
18.832849567259661
 20
125.34570717936001
 30
0.0
 40
3.0
  0
CIRCLE
  5
AD
  8
0
 10
24.832849567259661
 20
125.34570717936001
 30
0.0
 40
1.8
  0
CIRCLE
  5
AE
  8
0
 10
24.832849567259661
 20
125.34570717936001
 30
0.0
 40
3.0
  0
CIRCLE
  5
AF
  8
0
 10
30.832849567259661
 20
125.34570717936001
 30
0.0
 40
1.8
  0
CIRCLE
  5
B0
  8
0
 10
30.832849567259661
 20
125.34570717936001
 30
0.0
 40
3.0
  0
CIRCLE
  5
B1
  8
0
 10
15.762443167260081
 20
114.9973167793611
 30
0.0
 40
1.8
  0
CIRCLE
  5
B2
  8
0
 10
15.762443167260081
 20
114.9973167793611
 30
0.0
 40
6.0
  0
CIRCLE
  5
B3
  8
0
 10
27.762443167260091
 20
114.9973167793611
 30
0.0
 40
1.8
  0
CIRCLE
  5
B4
  8
0
 10
27.762443167260091
 20
114.9973167793611
 30
0.0
 40
6.0
  0
CIRCLE
  5
B5
  8
0
 10
15.864843167260091
 20
102.4021167793609
 30
0.0
 40
1.8
  0
CIRCLE
  5
B6
  8
0
 10
15.864843167260091
 20
102.4021167793609
 30
0.0
 40
6.0
  0
CIRCLE
  5
B7
  8
0
 10
27.864843167260091
 20
102.4021167793609
 30
0.0
 40
1.8
  0
CIRCLE
  5
B8
  8
0
 10
27.864843167260091
 20
102.4021167793609
 30
0.0
 40
6.0
  0
CIRCLE
  5
B9
  8
0
 10
22.000000000000011
 20
49.090000000000011
 30
0.0
 40
1.8
  0
CIRCLE
  5
BA
  8
0
 10
22.000000000000011
 20
49.090000000000011
 30
0.0
 40
6.0
  0
LINE
  5
BB
  8
0
 10
8.0000000000000089
 20
135.16
 30
0.0
 11
36.000000000000007
 21
135.16
 31
0.0
  0
LINE
  5
BC
  8
0
 10
8.0000000000000089
 20
135.16
 30
0.0
 11
8.0000000000000071
 21
92.160000000000025
 31
0.0
  0
LINE
  5
BD
  8
0
 10
8.0000000000000071
 20
92.160000000000025
 30
0.0
 11
36.000000000000007
 21
92.159999999999997
 31
0.0
  0
LINE
  5
BE
  8
0
 10
36.000000000000007
 20
135.16
 30
0.0
 11
36.000000000000007
 21
92.159999999999997
 31
0.0
  0
LINE
  5
BF
  8
0
 10
44.000000000000007
 20
148.31999999999999
 30
0.0
 11
44.0
 21
5.0
 31
0.0
  0
ARC
  5
C0
  8
0
 10
39.0
 20
5.0
 30
0.0
 40
5.0
 50
270.0
 51
0.0
  0
LINE
  5
C1
  8
0
 10
4.9999999999999956
 20
0.0000000000000142
 30
0.0
 11
39.0
 21
-0.0000000000000142
 31
0.0
  0
LINE
  5
C2
  8
0
 10
0.0000000000000107
 20
148.31999999999999
 30
0.0
 11
0.0
 21
5.0
 31
0.0
  0
ARC
  5
C3
  8
0
 10
5.0
 20
5.0000000000000142
 30
0.0
 40
5.0
 50
180.0
 51
269.99999999999989
  0
ENDSEC
  0
EOF
